<svg width="41" height="41" viewBox="0 0 41 41" fill="none" xmlns="http://www.w3.org/2000/svg">
<path d="M8.99231 33.0678H28.4796L27.5489 30.0543C27.6869 30.1746 35.533 36.9 35.533 36.9V7.48248C35.44 5.65388 33.8656 4.09998 31.914 4.09998L8.99914 4.10408C7.04891 4.10408 5.46631 5.66071 5.46631 7.48931V29.684C5.46631 31.6123 7.04618 33.0678 8.99231 33.0678ZM23.4079 11.8667L23.3628 11.8831L23.3792 11.8667H23.4079ZM12.9789 13.601C15.484 11.7779 17.8059 11.8654 17.8059 11.8654L17.9932 12.0499C14.9277 12.781 13.5378 14.1504 13.5378 14.1504C13.68 14.1204 19.8696 10.5493 27.3699 14.2406C27.3699 14.2406 25.9772 12.9601 23.1004 12.1401L23.3546 11.89C23.7523 11.8913 25.857 11.9651 28.1092 13.612C28.1092 13.612 30.6294 17.917 30.6294 23.206C30.546 23.1048 29.0659 25.4828 25.257 25.5648C25.257 25.5648 24.6119 24.835 24.1527 24.1982C26.3804 23.5586 27.2141 22.2794 27.2141 22.2794C22.8776 25.01 19.0769 24.5836 14.53 22.7386C14.4877 22.7386 14.4685 22.7194 14.4467 22.6976V22.6894C14.4248 22.6689 14.4057 22.6484 14.3633 22.6484H14.2813C14.0025 22.4652 13.8166 22.375 13.8166 22.375C13.8166 22.375 14.6489 23.6542 16.7878 24.2938C16.2261 24.9348 15.6698 25.6632 15.6698 25.6632C11.8623 25.573 10.4738 23.195 10.4738 23.195C10.4738 17.8978 12.9789 13.601 12.9789 13.601Z" fill="#1C2932"/>
<path d="M23.6531 21.5537C24.6248 21.5537 25.4161 20.7337 25.4161 19.7223C25.4161 18.7178 24.6289 17.8978 23.6531 17.8978V17.9019C22.6855 17.9019 21.8929 18.7192 21.8901 19.7305C21.8901 20.7337 22.6814 21.5537 23.6531 21.5537Z" fill="#1C2932"/>
<path d="M17.3421 21.5537C18.3138 21.5537 19.1051 20.7337 19.1051 19.7223C19.1051 18.7178 18.3193 17.8978 17.3476 17.8978L17.3421 17.9019C16.3704 17.9019 15.5791 18.7192 15.5791 19.7305C15.5791 20.7337 16.3704 21.5537 17.3421 21.5537Z" fill="#1C2932"/>
</svg>
