<svg width="41" height="41" viewBox="0 0 41 41" fill="none" xmlns="http://www.w3.org/2000/svg">
<path d="M20.4998 2.05098C15.6583 2.00235 10.9953 3.85593 7.53571 7.20437C4.0761 10.5528 2.10291 15.1221 2.0498 19.908C2.06846 23.6903 3.29928 27.3694 5.56547 30.4169C7.83167 33.4644 11.0166 35.7236 14.6629 36.8698C15.5854 37.0356 15.9209 36.4884 15.9209 36.0076V32.9734C10.7884 34.0511 9.69817 30.5858 9.69817 30.5858C9.3565 29.498 8.63014 28.568 7.6519 27.9661C5.97462 26.8718 7.78608 26.8884 7.78608 26.8884C8.36583 26.965 8.92051 27.1704 9.40852 27.4891C9.89653 27.8079 10.3052 28.2317 10.6039 28.7288C11.1244 29.621 11.9785 30.2756 12.9823 30.5516C13.9861 30.8275 15.0594 30.7029 15.9712 30.2045C16.0649 29.2965 16.4809 28.4507 17.1453 27.8169C13.0527 27.3692 8.7589 25.8438 8.7589 18.9961C8.7223 17.2099 9.38996 15.4796 10.6207 14.1712C10.0602 12.6377 10.1264 10.9485 10.8052 9.46241C10.8052 9.46241 12.365 8.98158 15.837 11.2863C18.8593 10.4901 22.0397 10.4901 25.062 11.2863C28.5843 8.98158 30.0938 9.46241 30.0938 9.46241C30.7726 10.9485 30.8388 12.6377 30.2783 14.1712C31.5376 15.4556 32.2415 17.1743 32.2407 18.963C32.2407 25.8272 27.9133 27.3361 23.8543 27.7837C24.2988 28.2103 24.6421 28.7289 24.8596 29.3023C25.0771 29.8756 25.1634 30.4895 25.1123 31.0998V35.991C25.1123 36.5713 25.4478 37.0356 26.3703 36.8532C30.0062 35.6999 33.1804 33.4402 35.4396 30.397C37.6988 27.3538 38.9273 23.6827 38.9498 19.908C38.8967 15.1221 36.9235 10.5528 33.4639 7.20437C30.0043 3.85593 25.3413 2.00235 20.4998 2.05098Z" fill="#1C2932"/>
</svg>
