<svg width="41" height="41" viewBox="0 0 41 41" fill="none" xmlns="http://www.w3.org/2000/svg">
<path d="M7.46867 12.4093C7.4896 12.2013 7.46157 11.9913 7.38681 11.7961C7.31206 11.6009 7.19266 11.4259 7.03817 11.2852L3.847 7.41238V6.83325H13.7519L21.4087 23.7543L28.1395 6.83325H37.5832V7.41238L34.855 10.0449C34.7394 10.1342 34.6502 10.2532 34.5969 10.3892C34.5436 10.5252 34.5283 10.6731 34.5526 10.8171V30.1793C34.5283 30.3234 34.5436 30.4713 34.5969 30.6073C34.6502 30.7433 34.7394 30.8622 34.855 30.9515L37.52 33.5858V34.1666H24.1215V33.5875L26.8805 30.8883C27.1521 30.615 27.1521 30.5347 27.1521 30.1178V14.4661L19.4783 34.1017H18.443L9.50842 14.4661V27.6271C9.43496 28.1806 9.61775 28.7375 10.0038 29.1373L13.593 33.5243V34.1017H3.4165V33.5243L7.004 29.1373C7.19382 28.9392 7.3347 28.6995 7.41538 28.4373C7.49606 28.175 7.51431 27.8976 7.46867 27.6271V12.4093Z" fill="#1C2932"/>
</svg>
