<svg width="41" height="41" viewBox="0 0 41 41" fill="none" xmlns="http://www.w3.org/2000/svg">
<path d="M38.9498 9.54384C37.5668 10.1311 36.102 10.5161 34.603 10.6865C36.1763 9.78821 37.3595 8.36374 37.9314 6.67923C36.4406 7.52288 34.8147 8.1171 33.1214 8.4371C32.4084 7.711 31.5508 7.13374 30.6007 6.74054C29.6507 6.34733 28.6282 6.14642 27.5957 6.15007C23.4149 6.15007 20.0256 9.39675 20.0256 13.3968C20.0256 13.9636 20.0921 14.5179 20.2212 15.0471C17.2223 14.9084 14.2861 14.1635 11.5998 12.8598C8.91361 11.5562 6.5364 9.72246 4.61989 7.47565C3.94799 8.57773 3.59484 9.83583 3.59776 11.117C3.59776 13.6336 4.93354 15.8524 6.96304 17.1493C5.76284 17.1117 4.58856 16.8001 3.53503 16.2399V16.3296C3.53503 19.8417 6.1457 22.7709 9.60508 23.4382C8.95492 23.6059 8.28513 23.6909 7.61248 23.6911C7.12355 23.6911 6.64939 23.6463 6.18629 23.5566C6.68091 25.0058 7.62744 26.2693 8.89442 27.1716C10.1614 28.0739 11.686 28.5702 13.2563 28.5916C10.5628 30.6088 7.25606 31.6985 3.85606 31.6894C3.24352 31.6894 2.64205 31.6535 2.0498 31.589C5.52072 33.7248 9.54529 34.8559 13.653 34.85C27.5772 34.85 35.1897 23.8059 35.1897 14.2291L35.1639 13.291C36.6488 12.2751 37.9316 11.0055 38.9498 9.54384Z" fill="#1C2932"/>
</svg>
